ply
format ascii 1.0
comment VCGLIB generated
element vertex 122
property float x
property float y
property float z
element face 217
property list uchar int vertex_indices
end_header
-45.6167 48.3026 2.35502 
-45.56 48.3867 2.35274 
-45.4072 47.7424 2.44015 
-45.687 48.0068 2.40697 
-45.3551 47.9447 2.43294 
-45.4232 47.6029 2.37062 
-44.9004 47.7116 2.4323 
-44.8252 47.8086 2.44973 
-44.9994 47.7653 2.44957 
-44.8472 48.5046 2.41372 
-45.4044 47.5769 2.46757 
-44.7571 48.1829 2.43669 
-45.0151 48.544 2.4302 
-44.5601 47.8201 2.42394 
-45.2772 47.8202 2.42629 
-45.0427 47.6575 2.46025 
-45.227 48.2185 2.40787 
-45.0858 47.4979 2.41919 
-44.9628 47.5926 2.46336 
-44.2751 48.2543 2.49678 
-44.6003 48.2008 2.44593 
-44.9382 47.4903 2.46937 
-45.2264 47.692 2.45175 
-45.0029 48.0215 2.40967 
-44.9895 47.2831 2.39099 
-44.9298 48.3305 2.44375 
-45.4659 48.457 2.33546 
-45.1336 47.8064 2.45026 
-44.8017 48.2812 2.4386 
-45.797 47.8384 2.41108 
-44.3681 47.9426 2.47474 
-45.6603 47.6458 2.45023 
-45.7737 47.5848 2.41661 
-45.7018 47.7407 2.43107 
-44.371 48.3249 2.48122 
-44.7562 48.6269 2.41284 
-45.1291 48.3009 2.41749 
-45.1084 48.4355 2.41713 
-45.29 47.2911 2.41539 
-45.1387 48.0346 2.44141 
-45.0667 47.3636 2.38922 
-45.7805 47.953 2.39206 
-45.6332 47.9067 2.39422 
-45.2633 47.5187 2.41999 
-45.1504 47.5997 2.45413 
-45.8861 47.9203 2.38974 
-45.8425 48.0056 2.28639 
-45.5125 47.9844 2.41773 
-45.3621 48.5014 2.37565 
-44.4693 48.3176 2.4637 
-45.0801 48.6201 2.40429 
-45.613 48.0771 2.37661 
-45.3288 48.1424 2.42245 
-44.6813 48.51 2.38486 
-44.7449 48.0202 2.45199 
-45.0321 48.2561 2.43017 
-45.1345 47.2844 2.4383 
-45.4903 47.4889 2.423 
-44.627 47.98 2.45123 
-44.8462 48.0812 2.41106 
-45.2004 48.5912 2.38753 
-45.3292 48.6014 2.34625 
-45.183 47.3929 2.42112 
-44.6004 48.301 2.44664 
-44.5867 48.54 2.42304 
-45.4221 48.1595 2.36362 
-45.2311 48.0763 2.42425 
-45.7032 48.1214 2.36755 
-45.0712 48.7699 2.24536 
-44.6888 47.5684 2.4412 
-45.9052 47.7352 2.40414 
-44.5964 48.4286 2.44863 
-45.5693 47.7395 2.41581 
-45.4191 48.2764 2.35732 
-45.2494 47.1856 2.44499 
-44.4608 48.4423 2.46353 
-45.2086 48.4876 2.3917 
-45.3919 47.3223 2.44833 
-45.2563 48.3228 2.40348 
-44.6698 47.8453 2.44091 
-44.9168 48.579 2.42947 
-45.5863 48.1927 2.36385 
-45.516 47.3664 2.38438 
-44.3438 48.077 2.44322 
-45.1832 48.6919 2.3698 
-44.4931 47.9108 2.45213 
-45.4348 48.0823 2.43031 
-44.8919 47.9696 2.40722 
-44.9513 48.4642 2.43275 
-45.0042 47.8682 2.44226 
-44.6222 48.0957 2.44749 
-45.5244 47.6567 2.46136 
-45.6233 47.5301 2.35966 
-46.0296 47.824 2.51489 
-44.6818 48.3622 2.44509 
-44.5064 48.0483 2.45267 
-44.8043 47.917 2.3823 
-45.1427 47.9199 2.44534 
-45.4062 48.3794 2.38664 
-44.647 47.7157 2.43724 
-44.9411 48.6971 2.40741 
-44.7999 48.7538 2.35419 
-44.162 48.1801 2.55244 
-44.7353 47.666 2.44245 
-45.0935 47.1882 2.43565 
-44.3876 48.204 2.47365 
-45.3133 47.6433 2.4413 
-45.4957 47.8601 2.42164 
-45.5942 47.4493 2.42043 
-44.2414 48.0859 2.45975 
-45.2927 47.3939 2.44172 
-45.388 47.4384 2.41327 
-45.0989 48.7844 2.34368 
-44.6446 48.6549 2.42447 
-45.8449 48.0429 2.38606 
-44.8574 48.1793 2.44379 
-44.7837 48.4104 2.45153 
-44.7827 47.4883 2.44443 
-44.8591 47.6167 2.45401 
-44.9532 48.8328 2.33934 
-44.9453 47.4042 2.41813 
-45.0461 48.1171 2.43838 
3 89 15 8 
3 27 8 89 
3 33 31 72 
3 11 94 28 
3 116 25 28 
3 92 108 57 
3 50 76 37 
3 30 109 83 
3 34 105 19 
3 2 107 72 
3 36 55 37 
3 66 97 39 
3 12 37 25 
3 16 121 55 
3 62 56 17 
3 33 42 29 
3 22 43 44 
3 20 90 95 
3 47 3 42 
3 48 60 61 
3 13 85 58 
3 43 62 17 
3 63 94 20 
3 110 62 43 
3 66 4 97 
3 23 39 97 
3 15 17 21 
3 56 74 104 
3 2 14 4 
3 81 51 47 
3 24 40 56 
3 66 39 121 
3 80 9 35 
3 57 108 82 
3 52 66 16 
3 50 84 60 
3 38 74 56 
3 100 50 80 
3 38 110 77 
3 20 105 49 
3 87 89 7 
3 25 9 88 
3 73 52 16 
3 3 51 67 
3 60 84 61 
3 76 48 78 
3 81 86 65 
3 20 94 11 
3 25 116 9 
3 49 71 94 
3 23 115 121 
3 54 96 7 
3 42 3 29 
3 1 0 73 
3 105 20 95 
3 48 26 98 
3 37 55 25 
3 69 99 103 
3 22 2 106 
3 109 102 19 
3 30 13 85 
3 91 31 92 
3 3 41 29 
3 4 107 2 
3 28 25 115 
3 77 110 111 
3 92 32 108 
3 34 19 102 
3 35 53 113 
3 22 8 27 
3 91 2 72 
3 118 69 103 
3 23 59 115 
3 59 54 115 
3 120 21 40 
3 57 77 111 
3 85 30 95 
3 58 85 95 
3 73 86 52 
3 10 91 57 
3 112 84 50 
3 29 41 45 
3 91 72 31 
3 14 27 97 
3 8 6 89 
3 12 25 88 
3 96 54 87 
3 6 7 89 
3 24 56 104 
3 113 101 35 
3 34 49 105 
3 18 118 6 
3 116 28 94 
3 86 66 52 
3 81 47 86 
3 44 15 22 
3 62 110 38 
3 0 1 67 
3 8 22 15 
3 29 45 70 
3 44 43 17 
3 61 84 48 
3 13 30 85 
3 91 92 57 
3 51 3 47 
3 120 40 24 
3 114 45 46 
3 78 98 73 
3 49 63 20 
3 0 81 73 
3 114 41 67 
3 100 35 101 
3 21 117 118 
3 29 70 45 
3 110 10 57 
3 108 77 82 
3 21 118 18 
3 85 13 30 
3 93 70 45 
3 94 63 49 
3 83 19 105 
3 66 86 4 
3 84 26 48 
3 115 54 11 
3 35 100 80 
3 60 76 50 
3 71 53 94 
3 26 1 73 
3 118 7 6 
3 113 53 64 
3 16 36 78 
3 65 73 81 
3 16 55 36 
3 92 31 32 
3 107 47 42 
3 87 23 89 
3 120 117 21 
3 15 6 8 
3 83 109 19 
3 62 38 56 
3 15 89 8 
3 32 31 33 
3 40 17 56 
3 2 5 10 
3 69 118 117 
3 9 116 53 
3 9 80 88 
3 110 57 111 
3 103 99 79 
3 0 67 81 
3 26 73 98 
3 59 23 87 
3 50 100 112 
3 97 4 14 
3 11 54 90 
3 37 76 78 
3 7 118 103 
3 94 53 116 
3 37 78 36 
3 64 71 75 
3 18 6 15 
3 2 10 106 
3 10 110 43 
3 4 86 47 
3 30 83 95 
3 21 17 40 
3 54 79 58 
3 23 121 39 
3 54 59 87 
3 112 100 119 
3 45 41 46 
3 48 98 78 
3 115 11 28 
3 96 87 7 
3 121 16 66 
3 58 79 13 
3 53 35 9 
3 29 70 33 
3 18 15 21 
3 20 11 90 
3 32 33 70 
3 2 10 5 
3 119 100 101 
3 106 43 22 
3 99 13 79 
3 71 64 53 
3 80 50 12 
3 95 90 58 
3 49 34 75 
3 90 54 58 
3 29 45 70 
3 71 49 75 
3 42 33 72 
3 89 97 27 
3 42 72 107 
3 3 67 41 
3 79 7 103 
3 89 23 97 
3 22 14 2 
3 65 86 73 
3 51 81 67 
3 44 17 15 
3 2 91 10 
3 82 77 57 
3 99 69 13 
3 60 48 76 
3 12 50 37 
3 22 27 14 
3 80 12 88 
3 4 47 107 
3 43 106 10 
3 41 114 46 
3 79 54 7 
3 115 55 121 
3 95 83 105 
3 25 55 115 
3 73 16 78 
